<mxfile host="65bd71144e">
    <diagram id="kaXhrQmKm95qiw9tXs-A" name="Page-1">
        <mxGraphModel dx="564" dy="527" grid="1" gridSize="10" guides="1" tooltips="1" connect="1" arrows="1" fold="1" page="1" pageScale="1" pageWidth="827" pageHeight="1169" math="0" shadow="0">
            <root>
                <mxCell id="0"/>
                <mxCell id="1" parent="0"/>
                <mxCell id="2" value="" style="rounded=0;whiteSpace=wrap;html=1;fillColor=#FCFCFC;" parent="1" vertex="1">
                    <mxGeometry x="40" y="40" width="360" height="640" as="geometry"/>
                </mxCell>
                <mxCell id="3" value="" style="shape=image;imageAspect=0;aspect=fixed;verticalLabelPosition=bottom;verticalAlign=top;fillColor=#FCFCFC;image=data:image/png,iVBORw0KGgoAAAANSUhEUgAAAKgAAADeCAYAAACpMEtoAAAAAXNSR0IArs4c6QAAGGVJREFUeJztnXl0HNWVxr+vqgWWhe1gY4yMmBFBRES2pK4qCGYJuzEEkpBhMglrwhImDFlJQhKGBDIMBA5nsjKTISEQctjCkg0Ch0kmBDzsrqqWbAuZ1RCDjMEmBmwtra47f7jFEcJ2d1dX1avufr9zfDiCevd+Np9fLe+++wCNRqPRaDQajUaj0Wg0Go1Go6lvqFpAPdPd3b1zJpOZaRjGzEKhMAMARWRzJpMZBrB54pfrupvVKk0v2qAhcBxnlyAIugB0GYbxfhHpBLALgJkkZwKYCaC5wrBrALwgImsAvCgifzUM47l8Pv9Mf3//qmh/B7WDNmgJ2tramufOnbsfyf0B7A9gEcndE5bxpoj4ADwAroh4vu8PAggS1pE42qDvhI7jdKJoxOKvbgCmUlVbZyOAPwZBcK9hGPe6rjukWlAcaIMCyGaz7aZpngng0wD2UK0nDCLSB+A+AHd7nrdUtZ6oaGiDWpZ1EsmzSB6pWkvErBWRO0j+ynXd/1MtphoazqCWZXWRPJfkaQBmqdYTNyLyEoA7CoXCDX19fb5qPZXSMAa1LOsswzDOAfAB1VoU8gcR+XfP8x5VLaRc6tqgHR0dM2fOnPlZAF9Q8OadWkTkARG51Pf9/1WtpRR1adDOzs4ZLS0tFwE4j2SLaj1pRURcABd4nvdn1Vq2Rb0ZlLZtnw3gMpJzVYupFUTkriAIvpLL5Z5WrWUqdWNQx3H2F5FrSPaq1lKjjAP4ycjIyCUrV67coFrMBDVv0M7Ozhk77bTTlQDOVa2lTngjCIKLfN//sWohQI0b1HGcwwHcBKBVtZY65LF8Pv8p1XUANWnQ4qx5NYDTVWtpAL7puu4VqpLXnEFt2+4geTeATtVaGoiciJzsed6TSSc2kk5YDbZtLyHpQpszabIkl2Wz2Q8lnTiNVTpbxXGcbwG4luQ01VoalCaSJ7e2tuaHhoYSK0ZJ/S2+vb192pw5c24F8FHVWjRvc/v69etPX7169UjciVJtUMuy5huGcRcAW7UWzTsREZfkMa7rvhZnntQa1LZth+RdSO4T0noReZ7k88V/vh4EwSaSbwHYRHITgM1BEMwgOQPATiRnFH/eDcD84nr/fADzEtKsFBEZIHlonCZNpUEdxzkawG9R+b6ecngTW7ZNPC4ijxuG8VQ+n3+uv79/U1QJ2tramnfddddDSB4NYDG2VOXXK6tGR0cPXbFixStxBE+dQbPZ7GLTNH8PIJKXIRF5FVvM/mBxL89AFHErwbKsuQCOJXksgCUkd05aQ5yIyNOFQuHwvr6+l6KOnSqDWpZ1lGEYf6w2joi8QPJOAL9JY0V5Nps9kOTxxfrUOar1RMRzQRAs8n3/1SiDpsagEZhzDYDrgyC40/f9vqh0xY1lWWcahvFlAAtVa6kWEVnmed5+UcZMhUGz2WzWNM2HAEyvdKyI3CQiv/B9/08xSEsMy7IOIXkpyUNUa6kGEbnT87x/jCqecoN2dXXt1tzc7APYrdwxxU8c1wG4yXXdjfGpSx7bto8heTkAS7WWKrjUdd1vRxFIqUGLb7tLSTplDrm9UChclcvlnohVWAqwbfsMAD8iuZNqLWEIguAk3/dvrTaOUoPatn0HyRNLXPYGgGvz+fz3+/v71yShKy04jrOXiPyqgr/AqUFE3hoZGdl7YGBgbTVxlBnUcZxvArh8W/9dRF4Qkf8YHR29fmBg4K0EpaUOx3G+C+AbqnVUShTPo0oMms1mDzIM40GS76qmEpG/kbzEdd2rARQUyEslxUqu27ClMVnNUCgUTsjlcr8LOz5xg+6zzz5zWlpaVuLdy4EFEbl2dHT0wjTtiUkTjuPsBeAPqK1yw7XDw8N7h70LJl4P2tLScgummFNEHgBgeZ73WW3ObeO67rPDw8P7Akjd4sN22K25uXmbj3KlSHQGnfrcWXzO/Krv+3ckqaPWKe77v7+WXp6CIGj3ff+FSsclNoP29vYuAPBvxR8LInLVG2+80anNWTmrVq16c/PmzUsAPKVaS7mQvDjUuKiFbAvbth8nuR8Ar1AonJXL5XJJ5a5XHMdpFZFlJOer1lIOhULhfZU2h0hkBrUs6/MkF4rIBa7r7qfNGQ2u6w4FQXCciIyq1lIOpmleUumY2A3a09PTZhjGEWNjYws9z7sKDdC2OklyuVxORE5RraNMTl64cGFFDYJj3zTX2to62/f9a9atW/d63LkalbVr1z7Z2traQvIg1VpKkclkXh4aGnq43OuVF4toIiPjOI6H9Ffve67rlv31oab2xWu2y3g+n/84gNh3WlaJnc1m9y73Ym3QOqLYR+ki1TpKYRjGP5V9bZxCNMnzyiuv/JeIrFOtY3uUUcH2NtqgdcaaNWuGAShr9lUOItLb1tZW1o5dbdA6ZN26df9d3M2aSkgac+fOLeswC23QOmTNmjXDJK9RrWN7FI+WLIk2aJ0SBMG1IiKqdWwHPYM2MsXKoftU69gO+5ZzkTZoHSMiv1StYVuQ/PtyrtMGrWMMw7gnzbf5hQsXlmyypg1ax7iuu5Fk2eveSbPjjjvuWuoabdA6R0TuUa1hWwRBoA3a6JBcplrDtjAMQ9/iG53h4eF+1Rq2Q8nj0LVB65xiZ49U7pQVkZKVV9qgDYCIKD0tbjuU7GqtDdoYVNUfKS6CICi5y0IbtAEgGUv/+GoJgmCo1DXaoA2AiKRyBi0UCi+XukYbtAEgOaZaw1RE5G/ltDnSBm0ARCSNTXDLOkdAG7QBSGmXZr+ci7RBGwARaVOtYSoi8lg512mDNgAk91StYSqjo6N/Kec6bdDG4L2qBUzh2XJ712uD1jm2bfegjDXvJBGRe8u9Vhu0/kndwWAiUnbPem3Q+udo1QKm8GYlpwJqg9YxxeYIS1TrmIyI3FLJ9Zm4hGjUM2/evCUAdlCtYzKFQuHnlVyvZ9A6RkT+WbWGyYjIQF9f3+OVjNEGrVN6eno6SR6jWscUflDpAG3QOiWTyfyrag2TEZF1nuf9rNJx2qB1iGVZvSRPU61jMiQrnj0BbdC6xDCMq1RrmML64eHhH4cZqA1aZ1iW9UkAi1XrmMKlYc/q1Ico1BHFg3pXAZijWsskXnRdt6w+TFtDz6B1xPTp03+GdJkTInJBNeP1DFon2Lb9OZKhnvNixHdd164mgJ5B64De3l4rheYEgHOrDaCXOmucbDa7t2maZRdfJIWI/NTzvLKq5reHnkFrmJ6enj1N03wAwGzVWqbw3Pj4+PlRBNIzaI1i23YHyQcBtKrWMhkRCUh+vL+/v2Rbm3LQM2gNUnzmfBQpMycAkLzMdV0vsnhRBdIkg2VZJ5L8RRq3EovII57nHRhlTH2LrxE6Ojp2nDlz5g9JpqqEbhJvjo2NfSLqoNqgNUBvb69lmuaNJLtUa9kWIvKpFStW/DXquNqgKcZxnKYgCC4yDONCpPj/lYh83fO838QRWz+DphTbto8neQWABaq1lOBa13U/E1dwbdCU4TjO/iJyJclDVWspg/9xXTfWTXmpvW00GpZl7WsYxncAfIisiXljMJ/P/0PcSbRBFeM4zuEiciHJo1RrqYCh8fHxo6L6GL89tEEV4DjOLiJyJslzAOxVIzMmgC2NZ0ku6evreymJfLXzJ1PjFE15IsmPAPiQaj0hWS8iR3iel9jZS9qgMdPd3b3zDjvs8GsAh6nWUg0isk5EDvd9fyDJvGaSyRqRdevWjcybN+9hwzAORgrXzstkqFAoHJrL5QaTTqwNmgBr167dMH/+/OsA7CAiB7KWHjqBFwEc5Pv+cyqS19IfVF2QzWYPNAzjNpK7q9ZSBs8HQXCw7/slj4uJC11ulzC5XO5hkgtE5DbVWkowODw8fKBKcwJ6BlVKcaPbD5C+Ry1/06ZNiwcHB9erFqINqhjLso4i+ZsU1Xfen8/nP5zER/hy0Ld4xfi+/yeS+4nIatVaRORuAEvSYk5AGzQVuK47mM/nbRF5WKUOkitc182r1DAVfYtPGbZt30Lyk6ryB0FwqO/7D6rKPxVt0PRh2rZ9E8nIt0+UydDY2NiC5cuXlzzLPQn0LT59FDzPOwXAbxXlb21qarpBUe53kbbPG5otyNDQ0J3z58/fF8DeSScn2dna2vry0NBQZNuHw6Jn0PQyPjw8/DERUdLWhuSPenp6OlXknow2aIoZGBgYI/lREXlSQfppTU1Nt3d1dSk9xkYbNOW4rrsZwEdEJFSH4irpbm5uvlxB3reJ9S1+wYIFs6dNm/aIiPxFRG73ff9+AIU4c9Yrtm1/mOTvk84rIkLyANd1q+5UF4ZYDeo4zs0ATpr4WUReBfBrALd5nvcXAEGc+esN27a/T/JLSecVkadHRkYWDgwMjCWdOzaDWpZ1rGEY92znkvUicivJO13XvT8uHfWG4zgugKq6FochCILv+r5/YdJ5YzFoV1fXTtOmTRusoOZxrYjcKSK3+b6/FIDEoaseyGazWdM0fQWpC+Pj4719fX0rk0wai0Ft276a5Hkhhw8BuAPAba7rPgRt1nfhOM4NAE5XkNp3XXc/JPgeEblBe3t7P2Ca5qNRbGsQkZcA3BEEwW25XE5pIUWasCxrrmEYqwFMV5D+m67rXpFUsqgNStu2V8TUhW2NiNxRfAx4JIb4NYXjON8A8N2k84rIWBAEC3O53NNJ5IvUoLZtn0PymihjboMhEbkRwK89z3s0gXypxLbtDSR3TjqviCz1PO+QJHJF9qG+s7NzBoBLo4pXglaSXyP5iG3b9yaUM438XEVSkh+0bftjSeSKzKAtLS3fJrlrVPHKRURUvNGmgrGxsR+JiKqXyO8hgWKjSAzqOM7fkfxiFLFCcJeivMopdjT+g4rcJNsty/qXuPNEYlAR+T6ApihiVZj3df3ChOtVJTYM4+KOjo6ZseaoNkDxSJTY+0RuDRVr02lj8+bNDyhMP2fWrFmxri5VbVDTNC+JQkgYgiBo2Nv7BIODg+sVleNN8MXe3t7YuqRUZVDLsnqL7QSVMDo6ep+q3GmCpMpZdJppmrF9j63KoCQvjkpIpYhI38DAgIoaydQRBIHq7cqnZbPZ9jhihzaoZVldAE6IUEtFkGz0l6O3MQxjTQo0fDWWuGEHkrxQZRtBEXlIVe4UMqRaAMkz99lnnzlRxw1l0I6OjpkK920DAPL5vC4eKVIoFNaq1gCgefr06Z+LOmgog86aNesMKDyAQUTWLV++XElD1TSSy+X+ploDAJD8fFtbW3OUMUMZVEQi/5tSISsU508dCpc8JzNn3rx5n44yYMUGzWazB5HsiFJEpZB8SmX+tOE4zqy0tBUXkfOjjFexQU3TPCdKAWEIgiCRWsRaYWxsLPKXk7CQ7LAsK7JjHCs2qIgoWdacjJ5B34lpmqk6PYRkZNtRKjKo4zgnpKET8Pj4uJ5BJ2Ga5r6qNUyG5Mfb29unRRGrIoOKiNJPSxM0NTUp752eMg5WLWAKM2bPnh3JEnjZBnUcp4nkR6NIWi3r16/XS5zv5HDVArbCaVEEqWQGPQ5ApN+4wrJ69eoR1RrSgm3bDoDUvCRNQPL47u7uqvdLlW1QEVlcbbIoEJFUfJROEcq/qmyLTCZT9SNhJTPoQdUmiwKSevYs4jjOdJInlb5SDYZhHFN1jHIuKq6991abLCJUNCtIJSJyJoAZqnVshyOqDVCWQWfMmJGK2bOINiiA9vb2aSS/o1pHCWZks9mqvFOWQUmmyaDKilTSxOzZs88HMFu1jlIYhnFUVePLvO791SSJmt7e3vep1qCSnp6eXUl+XbWOMjm6msHlGnSvapJEjWma71WtQSWZTOaHAGLd7hsVJA/s6uoKvfpY7i0+bTOW0moqlTiOc5zKk+jCsMMOO/SEHVvSoAsXLpyHlHygn8T+qgWowHGcWQCuVa2jUkzTDN3tsKRBm5qa0ng7Tdvac+y0t7dPE5F7AeymWksIQr/DlHOLf0/Y4HFBst1xnFQ9F8fNnDlzbiV5gGodYRCRBWHHlmPQlrDBY+Zk1QKSwrbtnwJIRaFOGKppaFyOQdP2/DlBQxjUtu1rSH5GtY4q2SPsm3wtz6D7OI6TxjKzqKDjODeQTG0xSCU0NTXNDzOu5KqMYRip2Iy1Db4AoO7OWGpvb582Z86c6zDpELRaJ5PJhCq9KzmDisiGMIET4gTHcRI/1CpOLMuaP3v27KWoI3MW2SXMoJIGDYIgzQYFFPVpjwPbthcZhuGSTNUeoygIgiBU3UBJgxqGkXaDZm3bvlK1iGrIZrPvcRznJ8WGaLX4nbMkJENV/Zc0aD6ffz1M4CQheYHjOJ9SrSMMlmWdbprm0wA+q1pLzIQqkyxpUNM00z6DTnCtbdvHqxZRLrZtO7ZtLzMM4waEfD6rMTaGGVTSoGlpTFUGGZJ32bZddRV3nPT09LQVPx8tI+mo1pMUIhJqq3hZ1UwiUjOnuZG8z7btM1TrmEpPT8+ejuP8LJPJPAs1B8EqhWSoia7c6vRHASwKk0ABGZLX2bZ95Pj4+Lf6+/ufVynGtu1FAM4jeSoApKTHV+IUCoVQj4qVGLSmIHlKU1PTKbZtXxMEwTeSfFTp6uraaccddzzDMIzPAOhOKm+aIRnqZbusv87ZbLbdNE2lM1GVbBCRK0XkRt/3X44jQXGmPILkYgCHxZGjxmlxXXdzpYPKvt/Ytr2O5NxKE6QNEXmE5CMi8lAQBF4ul1sdJk5vb++CTCZzpIgciS3GVN5ULcWsdF13YZiBleyQfBDAiWGSpIliTeUBJM83TROO42wQEQ/AEMmXRGR0G+NmiMjeJPcUkT1JthT/fZLyaxIReSLs2EoMejPqwKBbYTbJt7fGbs9wE/9Nm7IySIY2aNmtb0jepfsiacIQBMHjYceWbVDXdfMAbgibSNO4+L6/LOzYShvYKjv6WVObiMid1YyvyKC+7/cByFWTUNNw3FzN4DDnJF1VTUJN4yAib5Gs6sj0ig3quu7NAJZXk1TTGJD8VfHdJTRhT5q7oJqkmsZARKq6vQMVrCRNxXGcpWjADh+aslnuum7onkwThD6OOwiCL1ebXFO/BEEQSXvI0Ab1fX+ZiFwXhQhNfSEiS33fvzeKWKENCmw5fllE9KlvmncQ5YGyVRnUdd3NhULhYwD0yRuaCX5XzcrRVKoyKAD09fWtBPCVCLRoap83AJwbZUAziiBDQ0NPtLa29pJMVS97TbIEQXCG53mPRBmz6hl0ApKn1tLmOk3k3O77/i1RB43MoK7rbh4ZGVksIv1RxdTUDEMbN248O47AkRkUAAYGBt4aHR09HHoptKEIguDEZ5555o04YkdqUABYuXLlhiAIjtSfnxqCgoh82Pf9SJ87JxO5QQHA9/1Xx8bGPgjAjyO+Jh2IyNme590dZ45YDAoAK1aseAXAwSIS629Ao4wveZ73i7iTJLL7y7bt75HUa/d1gohc4HleInXBkXwHLcXQ0NB9ra2tLwM4jnpLZC2zuVAonOD7fmJ70xI1i23bR5C8EUBrknk1kTAUBMGxxW0/iRHbM+jW8DzvzwDeLyKxP7toIuWx0dFRK2lzAgnPoJOxLOtYwzCuBzBPlQZNSQpBEFzm+/6lAMZVCFD6PNjd3b1zU1PTT0h+QqUOzVZ5tlAonJTL5UJ3BYmCVLywZLPZg0zTvAZA6DMdNdEhIj8l+eUw3eiiJhUGLWLYtn02ycvQGD3b08hgoVA4O5fLPaRayARpMiiALWeii8glJD+HypqbacKzEcDFruteDaCgWsxkUmfQCXp6etqampq+JiJnTbQ61ESLiAiAG0h+zXXd11Tr2RqpNegE3d3dO2cymfNIfp7krqr11Al5ALfk8/nL+/v7V6kWsz1Sb9DJWJZ1Fsmv6Mr9cIjIJgDXFwqFK/r6+l5SraccasqgExQPkD0ZwKnQ31HLYRDALzdu3PifcdVtxkVNGnQShm3bhwE4leSJAGaqFpQinheRW8bHx2/p7+9foVpMWGrdoO8gm80eZprmkQAWA9hftR4FPAXgbhG53fO8utgfVlcGnUxnZ+eM6dOnH05yCclDAIQ6ZSLtiMh9JO8ZGxu7e/ny5c+p1hM1dWvQqXR0dMycNWvWIgCLROQAAItIvke1rkoQkZdILguCYBnJJ0guTcNqT5w0jEG3hmVZXSQXktwLQCeAjuJRM6o/Z20GsApbXm6eLBQK7sjIyGODg4OhDmStZRraoNuip6enxTCMLsMw9hCR3Q3DmC8ie5DcXUTaSO4OoDlk+A0AXiue/vsagPXFn4cA9BuG8ZTrui9G9FupebRBq8BxnFnDw8PNmUym2TTNZpLNQRBMM02T2DILvuNXvd+ONRqNRqPRaDQajUaj0Wg0Go1GUzn/D7doDC82QGSeAAAAAElFTkSuQmCC;" parent="1" vertex="1">
                    <mxGeometry x="204.86" y="50" width="30.27" height="40" as="geometry"/>
                </mxCell>
                <mxCell id="10" value="" style="endArrow=none;html=1;strokeColor=#303030;strokeWidth=2;" parent="1" edge="1">
                    <mxGeometry width="50" height="50" relative="1" as="geometry">
                        <mxPoint x="250" y="69.88" as="sourcePoint"/>
                        <mxPoint x="270" y="69.88" as="targetPoint"/>
                    </mxGeometry>
                </mxCell>
                <mxCell id="11" value="" style="endArrow=none;html=1;strokeColor=#303030;strokeWidth=2;" parent="1" edge="1">
                    <mxGeometry width="50" height="50" relative="1" as="geometry">
                        <mxPoint x="170" y="69.88" as="sourcePoint"/>
                        <mxPoint x="190" y="69.88" as="targetPoint"/>
                    </mxGeometry>
                </mxCell>
                <mxCell id="12" value="" style="rounded=0;whiteSpace=wrap;html=1;fillColor=#FCFCFC;" parent="1" vertex="1">
                    <mxGeometry x="440" y="40" width="360" height="640" as="geometry"/>
                </mxCell>
                <mxCell id="13" value="" style="shape=image;imageAspect=0;aspect=fixed;verticalLabelPosition=bottom;verticalAlign=top;fillColor=#FCFCFC;image=data:image/png,iVBORw0KGgoAAAANSUhEUgAAAKgAAADeCAYAAACpMEtoAAAAAXNSR0IArs4c6QAAGGVJREFUeJztnXl0HNWVxr+vqgWWhe1gY4yMmBFBRES2pK4qCGYJuzEEkpBhMglrwhImDFlJQhKGBDIMBA5nsjKTISEQctjCkg0Ch0kmBDzsrqqWbAuZ1RCDjMEmBmwtra47f7jFEcJ2d1dX1avufr9zfDiCevd+Np9fLe+++wCNRqPRaDQajUaj0Wg0Go1Go6lvqFpAPdPd3b1zJpOZaRjGzEKhMAMARWRzJpMZBrB54pfrupvVKk0v2qAhcBxnlyAIugB0GYbxfhHpBLALgJkkZwKYCaC5wrBrALwgImsAvCgifzUM47l8Pv9Mf3//qmh/B7WDNmgJ2tramufOnbsfyf0B7A9gEcndE5bxpoj4ADwAroh4vu8PAggS1pE42qDvhI7jdKJoxOKvbgCmUlVbZyOAPwZBcK9hGPe6rjukWlAcaIMCyGaz7aZpngng0wD2UK0nDCLSB+A+AHd7nrdUtZ6oaGiDWpZ1EsmzSB6pWkvErBWRO0j+ynXd/1MtphoazqCWZXWRPJfkaQBmqdYTNyLyEoA7CoXCDX19fb5qPZXSMAa1LOsswzDOAfAB1VoU8gcR+XfP8x5VLaRc6tqgHR0dM2fOnPlZAF9Q8OadWkTkARG51Pf9/1WtpRR1adDOzs4ZLS0tFwE4j2SLaj1pRURcABd4nvdn1Vq2Rb0ZlLZtnw3gMpJzVYupFUTkriAIvpLL5Z5WrWUqdWNQx3H2F5FrSPaq1lKjjAP4ycjIyCUrV67coFrMBDVv0M7Ozhk77bTTlQDOVa2lTngjCIKLfN//sWohQI0b1HGcwwHcBKBVtZY65LF8Pv8p1XUANWnQ4qx5NYDTVWtpAL7puu4VqpLXnEFt2+4geTeATtVaGoiciJzsed6TSSc2kk5YDbZtLyHpQpszabIkl2Wz2Q8lnTiNVTpbxXGcbwG4luQ01VoalCaSJ7e2tuaHhoYSK0ZJ/S2+vb192pw5c24F8FHVWjRvc/v69etPX7169UjciVJtUMuy5huGcRcAW7UWzTsREZfkMa7rvhZnntQa1LZth+RdSO4T0noReZ7k88V/vh4EwSaSbwHYRHITgM1BEMwgOQPATiRnFH/eDcD84nr/fADzEtKsFBEZIHlonCZNpUEdxzkawG9R+b6ecngTW7ZNPC4ijxuG8VQ+n3+uv79/U1QJ2tramnfddddDSB4NYDG2VOXXK6tGR0cPXbFixStxBE+dQbPZ7GLTNH8PIJKXIRF5FVvM/mBxL89AFHErwbKsuQCOJXksgCUkd05aQ5yIyNOFQuHwvr6+l6KOnSqDWpZ1lGEYf6w2joi8QPJOAL9JY0V5Nps9kOTxxfrUOar1RMRzQRAs8n3/1SiDpsagEZhzDYDrgyC40/f9vqh0xY1lWWcahvFlAAtVa6kWEVnmed5+UcZMhUGz2WzWNM2HAEyvdKyI3CQiv/B9/08xSEsMy7IOIXkpyUNUa6kGEbnT87x/jCqecoN2dXXt1tzc7APYrdwxxU8c1wG4yXXdjfGpSx7bto8heTkAS7WWKrjUdd1vRxFIqUGLb7tLSTplDrm9UChclcvlnohVWAqwbfsMAD8iuZNqLWEIguAk3/dvrTaOUoPatn0HyRNLXPYGgGvz+fz3+/v71yShKy04jrOXiPyqgr/AqUFE3hoZGdl7YGBgbTVxlBnUcZxvArh8W/9dRF4Qkf8YHR29fmBg4K0EpaUOx3G+C+AbqnVUShTPo0oMms1mDzIM40GS76qmEpG/kbzEdd2rARQUyEslxUqu27ClMVnNUCgUTsjlcr8LOz5xg+6zzz5zWlpaVuLdy4EFEbl2dHT0wjTtiUkTjuPsBeAPqK1yw7XDw8N7h70LJl4P2tLScgummFNEHgBgeZ73WW3ObeO67rPDw8P7Akjd4sN22K25uXmbj3KlSHQGnfrcWXzO/Krv+3ckqaPWKe77v7+WXp6CIGj3ff+FSsclNoP29vYuAPBvxR8LInLVG2+80anNWTmrVq16c/PmzUsAPKVaS7mQvDjUuKiFbAvbth8nuR8Ar1AonJXL5XJJ5a5XHMdpFZFlJOer1lIOhULhfZU2h0hkBrUs6/MkF4rIBa7r7qfNGQ2u6w4FQXCciIyq1lIOpmleUumY2A3a09PTZhjGEWNjYws9z7sKDdC2OklyuVxORE5RraNMTl64cGFFDYJj3zTX2to62/f9a9atW/d63LkalbVr1z7Z2traQvIg1VpKkclkXh4aGnq43OuVF4toIiPjOI6H9Ffve67rlv31oab2xWu2y3g+n/84gNh3WlaJnc1m9y73Ym3QOqLYR+ki1TpKYRjGP5V9bZxCNMnzyiuv/JeIrFOtY3uUUcH2NtqgdcaaNWuGAShr9lUOItLb1tZW1o5dbdA6ZN26df9d3M2aSkgac+fOLeswC23QOmTNmjXDJK9RrWN7FI+WLIk2aJ0SBMG1IiKqdWwHPYM2MsXKoftU69gO+5ZzkTZoHSMiv1StYVuQ/PtyrtMGrWMMw7gnzbf5hQsXlmyypg1ax7iuu5Fk2eveSbPjjjvuWuoabdA6R0TuUa1hWwRBoA3a6JBcplrDtjAMQ9/iG53h4eF+1Rq2Q8nj0LVB65xiZ49U7pQVkZKVV9qgDYCIKD0tbjuU7GqtDdoYVNUfKS6CICi5y0IbtAEgGUv/+GoJgmCo1DXaoA2AiKRyBi0UCi+XukYbtAEgOaZaw1RE5G/ltDnSBm0ARCSNTXDLOkdAG7QBSGmXZr+ci7RBGwARaVOtYSoi8lg512mDNgAk91StYSqjo6N/Kec6bdDG4L2qBUzh2XJ712uD1jm2bfegjDXvJBGRe8u9Vhu0/kndwWAiUnbPem3Q+udo1QKm8GYlpwJqg9YxxeYIS1TrmIyI3FLJ9Zm4hGjUM2/evCUAdlCtYzKFQuHnlVyvZ9A6RkT+WbWGyYjIQF9f3+OVjNEGrVN6eno6SR6jWscUflDpAG3QOiWTyfyrag2TEZF1nuf9rNJx2qB1iGVZvSRPU61jMiQrnj0BbdC6xDCMq1RrmML64eHhH4cZqA1aZ1iW9UkAi1XrmMKlYc/q1Ico1BHFg3pXAZijWsskXnRdt6w+TFtDz6B1xPTp03+GdJkTInJBNeP1DFon2Lb9OZKhnvNixHdd164mgJ5B64De3l4rheYEgHOrDaCXOmucbDa7t2maZRdfJIWI/NTzvLKq5reHnkFrmJ6enj1N03wAwGzVWqbw3Pj4+PlRBNIzaI1i23YHyQcBtKrWMhkRCUh+vL+/v2Rbm3LQM2gNUnzmfBQpMycAkLzMdV0vsnhRBdIkg2VZJ5L8RRq3EovII57nHRhlTH2LrxE6Ojp2nDlz5g9JpqqEbhJvjo2NfSLqoNqgNUBvb69lmuaNJLtUa9kWIvKpFStW/DXquNqgKcZxnKYgCC4yDONCpPj/lYh83fO838QRWz+DphTbto8neQWABaq1lOBa13U/E1dwbdCU4TjO/iJyJclDVWspg/9xXTfWTXmpvW00GpZl7WsYxncAfIisiXljMJ/P/0PcSbRBFeM4zuEiciHJo1RrqYCh8fHxo6L6GL89tEEV4DjOLiJyJslzAOxVIzMmgC2NZ0ku6evreymJfLXzJ1PjFE15IsmPAPiQaj0hWS8iR3iel9jZS9qgMdPd3b3zDjvs8GsAh6nWUg0isk5EDvd9fyDJvGaSyRqRdevWjcybN+9hwzAORgrXzstkqFAoHJrL5QaTTqwNmgBr167dMH/+/OsA7CAiB7KWHjqBFwEc5Pv+cyqS19IfVF2QzWYPNAzjNpK7q9ZSBs8HQXCw7/slj4uJC11ulzC5XO5hkgtE5DbVWkowODw8fKBKcwJ6BlVKcaPbD5C+Ry1/06ZNiwcHB9erFqINqhjLso4i+ZsU1Xfen8/nP5zER/hy0Ld4xfi+/yeS+4nIatVaRORuAEvSYk5AGzQVuK47mM/nbRF5WKUOkitc182r1DAVfYtPGbZt30Lyk6ryB0FwqO/7D6rKPxVt0PRh2rZ9E8nIt0+UydDY2NiC5cuXlzzLPQn0LT59FDzPOwXAbxXlb21qarpBUe53kbbPG5otyNDQ0J3z58/fF8DeSScn2dna2vry0NBQZNuHw6Jn0PQyPjw8/DERUdLWhuSPenp6OlXknow2aIoZGBgYI/lREXlSQfppTU1Nt3d1dSk9xkYbNOW4rrsZwEdEJFSH4irpbm5uvlxB3reJ9S1+wYIFs6dNm/aIiPxFRG73ff9+AIU4c9Yrtm1/mOTvk84rIkLyANd1q+5UF4ZYDeo4zs0ATpr4WUReBfBrALd5nvcXAEGc+esN27a/T/JLSecVkadHRkYWDgwMjCWdOzaDWpZ1rGEY92znkvUicivJO13XvT8uHfWG4zgugKq6FochCILv+r5/YdJ5YzFoV1fXTtOmTRusoOZxrYjcKSK3+b6/FIDEoaseyGazWdM0fQWpC+Pj4719fX0rk0wai0Ft276a5Hkhhw8BuAPAba7rPgRt1nfhOM4NAE5XkNp3XXc/JPgeEblBe3t7P2Ca5qNRbGsQkZcA3BEEwW25XE5pIUWasCxrrmEYqwFMV5D+m67rXpFUsqgNStu2V8TUhW2NiNxRfAx4JIb4NYXjON8A8N2k84rIWBAEC3O53NNJ5IvUoLZtn0PymihjboMhEbkRwK89z3s0gXypxLbtDSR3TjqviCz1PO+QJHJF9qG+s7NzBoBLo4pXglaSXyP5iG3b9yaUM438XEVSkh+0bftjSeSKzKAtLS3fJrlrVPHKRURUvNGmgrGxsR+JiKqXyO8hgWKjSAzqOM7fkfxiFLFCcJeivMopdjT+g4rcJNsty/qXuPNEYlAR+T6ApihiVZj3df3ChOtVJTYM4+KOjo6ZseaoNkDxSJTY+0RuDRVr02lj8+bNDyhMP2fWrFmxri5VbVDTNC+JQkgYgiBo2Nv7BIODg+sVleNN8MXe3t7YuqRUZVDLsnqL7QSVMDo6ep+q3GmCpMpZdJppmrF9j63KoCQvjkpIpYhI38DAgIoaydQRBIHq7cqnZbPZ9jhihzaoZVldAE6IUEtFkGz0l6O3MQxjTQo0fDWWuGEHkrxQZRtBEXlIVe4UMqRaAMkz99lnnzlRxw1l0I6OjpkK920DAPL5vC4eKVIoFNaq1gCgefr06Z+LOmgog86aNesMKDyAQUTWLV++XElD1TSSy+X+ploDAJD8fFtbW3OUMUMZVEQi/5tSISsU508dCpc8JzNn3rx5n44yYMUGzWazB5HsiFJEpZB8SmX+tOE4zqy0tBUXkfOjjFexQU3TPCdKAWEIgiCRWsRaYWxsLPKXk7CQ7LAsK7JjHCs2qIgoWdacjJ5B34lpmqk6PYRkZNtRKjKo4zgnpKET8Pj4uJ5BJ2Ga5r6qNUyG5Mfb29unRRGrIoOKiNJPSxM0NTUp752eMg5WLWAKM2bPnh3JEnjZBnUcp4nkR6NIWi3r16/XS5zv5HDVArbCaVEEqWQGPQ5ApN+4wrJ69eoR1RrSgm3bDoDUvCRNQPL47u7uqvdLlW1QEVlcbbIoEJFUfJROEcq/qmyLTCZT9SNhJTPoQdUmiwKSevYs4jjOdJInlb5SDYZhHFN1jHIuKq6991abLCJUNCtIJSJyJoAZqnVshyOqDVCWQWfMmJGK2bOINiiA9vb2aSS/o1pHCWZks9mqvFOWQUmmyaDKilTSxOzZs88HMFu1jlIYhnFUVePLvO791SSJmt7e3vep1qCSnp6eXUl+XbWOMjm6msHlGnSvapJEjWma71WtQSWZTOaHAGLd7hsVJA/s6uoKvfpY7i0+bTOW0moqlTiOc5zKk+jCsMMOO/SEHVvSoAsXLpyHlHygn8T+qgWowHGcWQCuVa2jUkzTDN3tsKRBm5qa0ng7Tdvac+y0t7dPE5F7AeymWksIQr/DlHOLf0/Y4HFBst1xnFQ9F8fNnDlzbiV5gGodYRCRBWHHlmPQlrDBY+Zk1QKSwrbtnwJIRaFOGKppaFyOQdP2/DlBQxjUtu1rSH5GtY4q2SPsm3wtz6D7OI6TxjKzqKDjODeQTG0xSCU0NTXNDzOu5KqMYRip2Iy1Db4AoO7OWGpvb582Z86c6zDpELRaJ5PJhCq9KzmDisiGMIET4gTHcRI/1CpOLMuaP3v27KWoI3MW2SXMoJIGDYIgzQYFFPVpjwPbthcZhuGSTNUeoygIgiBU3UBJgxqGkXaDZm3bvlK1iGrIZrPvcRznJ8WGaLX4nbMkJENV/Zc0aD6ffz1M4CQheYHjOJ9SrSMMlmWdbprm0wA+q1pLzIQqkyxpUNM00z6DTnCtbdvHqxZRLrZtO7ZtLzMM4waEfD6rMTaGGVTSoGlpTFUGGZJ32bZddRV3nPT09LQVPx8tI+mo1pMUIhJqq3hZ1UwiUjOnuZG8z7btM1TrmEpPT8+ejuP8LJPJPAs1B8EqhWSoia7c6vRHASwKk0ABGZLX2bZ95Pj4+Lf6+/ufVynGtu1FAM4jeSoApKTHV+IUCoVQj4qVGLSmIHlKU1PTKbZtXxMEwTeSfFTp6uraaccddzzDMIzPAOhOKm+aIRnqZbusv87ZbLbdNE2lM1GVbBCRK0XkRt/3X44jQXGmPILkYgCHxZGjxmlxXXdzpYPKvt/Ytr2O5NxKE6QNEXmE5CMi8lAQBF4ul1sdJk5vb++CTCZzpIgciS3GVN5ULcWsdF13YZiBleyQfBDAiWGSpIliTeUBJM83TROO42wQEQ/AEMmXRGR0G+NmiMjeJPcUkT1JthT/fZLyaxIReSLs2EoMejPqwKBbYTbJt7fGbs9wE/9Nm7IySIY2aNmtb0jepfsiacIQBMHjYceWbVDXdfMAbgibSNO4+L6/LOzYShvYKjv6WVObiMid1YyvyKC+7/cByFWTUNNw3FzN4DDnJF1VTUJN4yAib5Gs6sj0ig3quu7NAJZXk1TTGJD8VfHdJTRhT5q7oJqkmsZARKq6vQMVrCRNxXGcpWjADh+aslnuum7onkwThD6OOwiCL1ebXFO/BEEQSXvI0Ab1fX+ZiFwXhQhNfSEiS33fvzeKWKENCmw5fllE9KlvmncQ5YGyVRnUdd3NhULhYwD0yRuaCX5XzcrRVKoyKAD09fWtBPCVCLRoap83AJwbZUAziiBDQ0NPtLa29pJMVS97TbIEQXCG53mPRBmz6hl0ApKn1tLmOk3k3O77/i1RB43MoK7rbh4ZGVksIv1RxdTUDEMbN248O47AkRkUAAYGBt4aHR09HHoptKEIguDEZ5555o04YkdqUABYuXLlhiAIjtSfnxqCgoh82Pf9SJ87JxO5QQHA9/1Xx8bGPgjAjyO+Jh2IyNme590dZ45YDAoAK1aseAXAwSIS629Ao4wveZ73i7iTJLL7y7bt75HUa/d1gohc4HleInXBkXwHLcXQ0NB9ra2tLwM4jnpLZC2zuVAonOD7fmJ70xI1i23bR5C8EUBrknk1kTAUBMGxxW0/iRHbM+jW8DzvzwDeLyKxP7toIuWx0dFRK2lzAgnPoJOxLOtYwzCuBzBPlQZNSQpBEFzm+/6lAMZVCFD6PNjd3b1zU1PTT0h+QqUOzVZ5tlAonJTL5UJ3BYmCVLywZLPZg0zTvAZA6DMdNdEhIj8l+eUw3eiiJhUGLWLYtn02ycvQGD3b08hgoVA4O5fLPaRayARpMiiALWeii8glJD+HypqbacKzEcDFruteDaCgWsxkUmfQCXp6etqampq+JiJnTbQ61ESLiAiAG0h+zXXd11Tr2RqpNegE3d3dO2cymfNIfp7krqr11Al5ALfk8/nL+/v7V6kWsz1Sb9DJWJZ1Fsmv6Mr9cIjIJgDXFwqFK/r6+l5SraccasqgExQPkD0ZwKnQ31HLYRDALzdu3PifcdVtxkVNGnQShm3bhwE4leSJAGaqFpQinheRW8bHx2/p7+9foVpMWGrdoO8gm80eZprmkQAWA9hftR4FPAXgbhG53fO8utgfVlcGnUxnZ+eM6dOnH05yCclDAIQ6ZSLtiMh9JO8ZGxu7e/ny5c+p1hM1dWvQqXR0dMycNWvWIgCLROQAAItIvke1rkoQkZdILguCYBnJJ0guTcNqT5w0jEG3hmVZXSQXktwLQCeAjuJRM6o/Z20GsApbXm6eLBQK7sjIyGODg4OhDmStZRraoNuip6enxTCMLsMw9hCR3Q3DmC8ie5DcXUTaSO4OoDlk+A0AXiue/vsagPXFn4cA9BuG8ZTrui9G9FupebRBq8BxnFnDw8PNmUym2TTNZpLNQRBMM02T2DILvuNXvd+ONRqNRqPRaDQajUaj0Wg0Go1GUzn/D7doDC82QGSeAAAAAElFTkSuQmCC;" parent="1" vertex="1">
                    <mxGeometry x="604.86" y="50" width="30.27" height="40" as="geometry"/>
                </mxCell>
                <mxCell id="14" value="" style="endArrow=none;html=1;strokeColor=#303030;strokeWidth=2;" parent="1" edge="1">
                    <mxGeometry width="50" height="50" relative="1" as="geometry">
                        <mxPoint x="650" y="69.88000000000011" as="sourcePoint"/>
                        <mxPoint x="670" y="69.88000000000011" as="targetPoint"/>
                    </mxGeometry>
                </mxCell>
                <mxCell id="15" value="" style="endArrow=none;html=1;strokeColor=#303030;strokeWidth=2;" parent="1" edge="1">
                    <mxGeometry width="50" height="50" relative="1" as="geometry">
                        <mxPoint x="570" y="69.88000000000011" as="sourcePoint"/>
                        <mxPoint x="590" y="69.88000000000011" as="targetPoint"/>
                    </mxGeometry>
                </mxCell>
                <mxCell id="17" value="Accueil" style="text;html=1;strokeColor=none;fillColor=none;align=center;verticalAlign=middle;whiteSpace=wrap;rounded=0;fontColor=#191919;fontSize=16;fontFamily=Antic Slab;fontStyle=1;fontSource=https%3A%2F%2Ffonts.googleapis.com%2Fcss%3Ffamily%3DAntic%2BSlab;" parent="1" vertex="1">
                    <mxGeometry x="50" y="55" width="80" height="30" as="geometry"/>
                </mxCell>
                <mxCell id="26" value="" style="group" parent="1" vertex="1" connectable="0">
                    <mxGeometry x="350" y="56" width="30" height="28" as="geometry"/>
                </mxCell>
                <mxCell id="18" value="" style="rounded=0;whiteSpace=wrap;html=1;fontFamily=Antic Slab;fontSource=https%3A%2F%2Ffonts.googleapis.com%2Fcss%3Ffamily%3DAntic%2BSlab;fontSize=16;fontColor=#191919;fillColor=none;gradientColor=none;gradientDirection=north;strokeColor=#000000;sketch=1;" parent="26" vertex="1">
                    <mxGeometry width="30" height="8" as="geometry"/>
                </mxCell>
                <mxCell id="20" value="" style="rounded=0;whiteSpace=wrap;html=1;fontFamily=Antic Slab;fontSource=https%3A%2F%2Ffonts.googleapis.com%2Fcss%3Ffamily%3DAntic%2BSlab;fontSize=16;fontColor=#191919;fillColor=none;gradientColor=none;gradientDirection=north;strokeColor=#000000;sketch=1;" parent="26" vertex="1">
                    <mxGeometry y="10" width="30" height="8" as="geometry"/>
                </mxCell>
                <mxCell id="21" value="" style="rounded=0;whiteSpace=wrap;html=1;fontFamily=Antic Slab;fontSource=https%3A%2F%2Ffonts.googleapis.com%2Fcss%3Ffamily%3DAntic%2BSlab;fontSize=16;fontColor=#191919;fillColor=none;gradientColor=none;gradientDirection=north;strokeColor=#000000;sketch=1;" parent="26" vertex="1">
                    <mxGeometry y="20" width="30" height="8" as="geometry"/>
                </mxCell>
            </root>
        </mxGraphModel>
    </diagram>
</mxfile>